<?xml version="1.0" encoding="utf-8"?>
<!-- Generator: Adobe Illustrator 16.0.4, SVG Export Plug-In . SVG Version: 6.00 Build 0)  -->
<!DOCTYPE svg PUBLIC "-//W3C//DTD SVG 1.1//EN" "http://www.w3.org/Graphics/SVG/1.1/DTD/svg11.dtd">
<svg version="1.1" id="Layer_1" xmlns="http://www.w3.org/2000/svg" xmlns:xlink="http://www.w3.org/1999/xlink" x="0px" y="0px"
	 width="177px" height="247px" viewBox="0 0 177 247" enable-background="new 0 0 177 247" xml:space="preserve">
<g>
	<g>
		<g>
			<rect x="32.766" y="32.626" fill="#FFFFFF" width="128.526" height="177.34"/>
		</g>
		<polygon fill="#D13239" points="27.251,247 16.331,247 16.331,148.014 16.331,5.431 21.793,0 27.251,5.431 27.251,148.014 		"/>
		<polygon fill="#D13239" points="5.441,27.066 0,21.597 5.441,16.13 33.009,16.13 171.536,16.13 177,21.597 171.536,27.066 
			33.009,27.066 		"/>
		<polygon fill="#D13239" points="160.927,79.53 33.129,59.318 33.129,32.724 160.927,32.724 		"/>
		<path fill="#D13239" d="M160.927,32.626H33.129h-0.363v0.439v176.901h128.526V54.186v-21.56H160.927z M36.223,205.811V36.78
			h121.61v169.031H36.223z"/>
		<g>
			<g enable-background="new    ">
				<path fill="#FFFFFF" d="M77.679,52.12c-0.485,0.776-1.303,1.492-1.967,1.961c-0.715,0.491-1.916,0.776-2.912,0.695
					c-1.047-0.082-1.89-0.388-2.503-0.674c-0.537-0.266-1.175-0.776-1.405-1.389c-1.098-2.82,1.456-8.418,5.032-10.87
					c0.945-0.633,1.839-0.776,2.58-0.715c1.099,0.082,2.401,0.531,3.04,1.001c0.715,0.531,0.843,1.103,0.817,1.818
					c-0.026,0.817-0.307,1.982-0.639,2.636c-0.153,0.327-0.281,0.552-0.945,0.429c-1.328-0.245-1.788-0.776-1.839-1.736
					c-0.025-0.695,0.383-1.635-0.179-1.818c-0.741-0.245-2.81,2.493-3.678,4.372c-0.945,2.023-1.354,4.373-0.46,4.638
					c0.485,0.143,1.149-0.225,2.197-1.165c0.715-0.633,1.66-0.817,2.631-0.552C78.241,50.976,78.113,51.446,77.679,52.12z"/>
			</g>
			<g enable-background="new    ">
				<path fill="none" stroke="#FFFFFF" stroke-width="0.2425" stroke-miterlimit="10" d="M77.679,52.12
					c-0.485,0.776-1.303,1.492-1.967,1.961c-0.715,0.491-1.916,0.776-2.912,0.695c-1.047-0.082-1.89-0.388-2.503-0.674
					c-0.537-0.266-1.175-0.776-1.405-1.389c-1.098-2.82,1.456-8.418,5.032-10.87c0.945-0.633,1.839-0.776,2.58-0.715
					c1.099,0.082,2.401,0.531,3.04,1.001c0.715,0.531,0.843,1.103,0.817,1.818c-0.026,0.817-0.307,1.982-0.639,2.636
					c-0.153,0.327-0.281,0.552-0.945,0.429c-1.328-0.245-1.788-0.776-1.839-1.736c-0.025-0.695,0.383-1.635-0.179-1.818
					c-0.741-0.245-2.81,2.493-3.678,4.372c-0.945,2.023-1.354,4.373-0.46,4.638c0.485,0.143,1.149-0.225,2.197-1.165
					c0.715-0.633,1.66-0.817,2.631-0.552C78.241,50.976,78.113,51.446,77.679,52.12z"/>
			</g>
			<g enable-background="new    ">
				<path fill="#FFFFFF" d="M91.98,44.234c0.179,2.778-1.252,7.232-4.138,9.5c-0.971,0.756-2.018,0.96-3.27,0.838
					c-0.817-0.082-1.788-0.327-2.452-0.695c-0.511-0.286-1.073-0.838-1.303-1.471c-1.098-2.921,1.124-8.111,4.674-10.461
					c0.741-0.49,1.891-0.735,2.708-0.633c1.073,0.123,2.171,0.49,2.759,0.96C91.648,42.824,91.93,43.458,91.98,44.234z
					 M84.879,47.605c-0.894,1.9-1.379,4.495-0.434,4.801c0.919,0.307,2.375-1.471,3.397-3.902c0.792-1.88,1.354-4.679,0.537-4.883
					C87.587,43.417,85.773,45.685,84.879,47.605z"/>
				<path fill="#FFFFFF" d="M103.242,41.884c0.204-0.491,0.562-0.593,1.124-0.45s0.843,0.225,1.532,0.593
					c0.537,0.286,0.512,0.613,0.307,1.083c-1.149,2.779-2.988,7.744-4.062,10.87c-0.128,0.45-0.536,0.613-1.073,0.49
					c-0.535-0.102-1.072-0.286-1.532-0.49c-0.46-0.184-0.767-0.552-0.894-1.021c-0.408-1.389-0.741-3.637-0.92-5.762
					c-0.92,2.554-2.018,5.312-2.555,6.926c-0.127,0.45-0.332,0.531-0.868,0.388c-0.536-0.123-1.175-0.327-1.608-0.613
					c-0.436-0.266-0.486-0.552-0.332-1.124c0.484-1.777,2.732-8.029,3.959-10.849c0.229-0.511,0.664-0.613,1.2-0.49
					c0.664,0.164,1.354,0.368,2.044,0.674c0.587,0.225,0.74,0.531,0.766,1.206c0.025,1.083,0.153,3.555,0.307,5.598
					C101.429,46.379,102.45,43.743,103.242,41.884z"/>
				<path fill="#FFFFFF" d="M115.424,43.703c-1.379,3.187-2.988,7.314-4.113,10.522c-0.152,0.429-0.332,0.511-0.868,0.388
					s-1.124-0.327-1.583-0.592c-0.46-0.266-0.512-0.572-0.357-1.144c0.535-2.146,1.992-6.15,3.064-8.745
					c-0.588,0.082-1.227,0.163-1.609,0.245c-0.536,0.102-0.766,0.061-1.098-0.327s-0.588-1.083-0.716-1.471
					c-0.128-0.409,0.026-0.49,0.435-0.572c2.4-0.429,6.232-0.756,8.607-0.797c0.588,0,0.793,0.123,0.971,0.327
					c0.332,0.409,0.562,0.919,0.639,1.349c0.077,0.429,0.025,0.552-0.587,0.592C117.391,43.539,116.445,43.621,115.424,43.703z"/>
				<path fill="#FFFFFF" d="M118.463,51.854c-0.562,0.838-1.072,1.635-1.507,2.33c-0.28,0.429-0.485,0.47-0.971,0.286
					c-0.485-0.204-0.868-0.347-1.226-0.674c-0.357-0.327-0.357-0.613-0.051-1.185c1.686-3.003,5.082-7.989,7.203-10.706
					c0.357-0.47,0.842-0.817,1.762-0.756c1.584,0.082,2.401,0.348,3.244,0.572c0.613,0.184,0.689,0.511,0.588,1.021
					c-0.46,2.574-1.047,7.499-1.38,11.278c-0.025,0.47-0.179,0.592-0.741,0.592c-0.561,0-1.072-0.02-1.583-0.184
					s-0.664-0.409-0.664-1.021c0-0.654,0.052-1.43,0.103-2.309C121.605,51.323,119.766,51.569,118.463,51.854z M123.418,48.585
					c0.154-1.614,0.358-3.289,0.588-4.74c-0.996,1.348-2.299,3.187-3.576,5.046C121.426,48.77,122.448,48.647,123.418,48.585z"/>
				<path fill="#FFFFFF" d="M137.668,52.12c-0.484,0.776-1.303,1.492-1.967,1.961c-0.715,0.491-1.916,0.776-2.912,0.695
					c-1.047-0.082-1.89-0.388-2.502-0.674c-0.537-0.266-1.176-0.776-1.406-1.389c-1.098-2.82,1.457-8.418,5.033-10.87
					c0.944-0.633,1.838-0.776,2.579-0.715c1.099,0.082,2.401,0.531,3.04,1.001c0.715,0.531,0.843,1.103,0.817,1.818
					c-0.026,0.817-0.307,1.982-0.639,2.636c-0.153,0.327-0.281,0.552-0.945,0.429c-1.328-0.245-1.788-0.776-1.839-1.736
					c-0.025-0.695,0.383-1.635-0.179-1.818c-0.741-0.245-2.81,2.493-3.679,4.372c-0.945,2.023-1.354,4.373-0.459,4.638
					c0.484,0.143,1.148-0.225,2.196-1.165c0.716-0.633,1.66-0.817,2.631-0.552C138.23,50.976,138.103,51.446,137.668,52.12z"/>
				<path fill="#FFFFFF" d="M149.47,43.703c-1.379,3.187-2.988,7.314-4.112,10.522c-0.153,0.429-0.332,0.511-0.868,0.388
					s-1.124-0.327-1.584-0.592s-0.511-0.572-0.357-1.144c0.536-2.146,1.992-6.15,3.065-8.745c-0.588,0.082-1.227,0.163-1.609,0.245
					c-0.537,0.102-0.767,0.061-1.099-0.327s-0.587-1.083-0.716-1.471c-0.127-0.409,0.026-0.49,0.436-0.572
					c2.4-0.429,6.232-0.756,8.607-0.797c0.588,0,0.792,0.123,0.971,0.327c0.332,0.409,0.562,0.919,0.639,1.349
					s0.025,0.552-0.588,0.592C151.437,43.539,150.492,43.621,149.47,43.703z"/>
			</g>
			<g enable-background="new    ">
				<path fill="none" stroke="#FFFFFF" stroke-width="0.2425" stroke-miterlimit="10" d="M91.98,44.234
					c0.179,2.778-1.252,7.232-4.138,9.5c-0.971,0.756-2.018,0.96-3.27,0.838c-0.817-0.082-1.788-0.327-2.452-0.695
					c-0.511-0.286-1.073-0.838-1.303-1.471c-1.098-2.921,1.124-8.111,4.674-10.461c0.741-0.49,1.891-0.735,2.708-0.633
					c1.073,0.123,2.171,0.49,2.759,0.96C91.648,42.824,91.93,43.458,91.98,44.234z M84.879,47.605
					c-0.894,1.9-1.379,4.495-0.434,4.801c0.919,0.307,2.375-1.471,3.397-3.902c0.792-1.88,1.354-4.679,0.537-4.883
					C87.587,43.417,85.773,45.685,84.879,47.605z"/>
				<path fill="none" stroke="#FFFFFF" stroke-width="0.2425" stroke-miterlimit="10" d="M103.242,41.884
					c0.204-0.491,0.562-0.593,1.124-0.45s0.843,0.225,1.532,0.593c0.537,0.286,0.512,0.613,0.307,1.083
					c-1.149,2.779-2.988,7.744-4.062,10.87c-0.128,0.45-0.536,0.613-1.073,0.49c-0.535-0.102-1.072-0.286-1.532-0.49
					c-0.46-0.184-0.767-0.552-0.894-1.021c-0.408-1.389-0.741-3.637-0.92-5.762c-0.92,2.554-2.018,5.312-2.555,6.926
					c-0.127,0.45-0.332,0.531-0.868,0.388c-0.536-0.123-1.175-0.327-1.608-0.613c-0.436-0.266-0.486-0.552-0.332-1.124
					c0.484-1.777,2.732-8.029,3.959-10.849c0.229-0.511,0.664-0.613,1.2-0.49c0.664,0.164,1.354,0.368,2.044,0.674
					c0.587,0.225,0.74,0.531,0.766,1.206c0.025,1.083,0.153,3.555,0.307,5.598C101.429,46.379,102.45,43.743,103.242,41.884z"/>
				<path fill="none" stroke="#FFFFFF" stroke-width="0.2425" stroke-miterlimit="10" d="M115.424,43.703
					c-1.379,3.187-2.988,7.314-4.113,10.522c-0.152,0.429-0.332,0.511-0.868,0.388s-1.124-0.327-1.583-0.592
					c-0.46-0.266-0.512-0.572-0.357-1.144c0.535-2.146,1.992-6.15,3.064-8.745c-0.588,0.082-1.227,0.163-1.609,0.245
					c-0.536,0.102-0.766,0.061-1.098-0.327s-0.588-1.083-0.716-1.471c-0.128-0.409,0.026-0.49,0.435-0.572
					c2.4-0.429,6.232-0.756,8.607-0.797c0.588,0,0.793,0.123,0.971,0.327c0.332,0.409,0.562,0.919,0.639,1.349
					c0.077,0.429,0.025,0.552-0.587,0.592C117.391,43.539,116.445,43.621,115.424,43.703z"/>
				<path fill="none" stroke="#FFFFFF" stroke-width="0.2425" stroke-miterlimit="10" d="M118.463,51.854
					c-0.562,0.838-1.072,1.635-1.507,2.33c-0.28,0.429-0.485,0.47-0.971,0.286c-0.485-0.204-0.868-0.347-1.226-0.674
					c-0.357-0.327-0.357-0.613-0.051-1.185c1.686-3.003,5.082-7.989,7.203-10.706c0.357-0.47,0.842-0.817,1.762-0.756
					c1.584,0.082,2.401,0.348,3.244,0.572c0.613,0.184,0.689,0.511,0.588,1.021c-0.46,2.574-1.047,7.499-1.38,11.278
					c-0.025,0.47-0.179,0.592-0.741,0.592c-0.561,0-1.072-0.02-1.583-0.184s-0.664-0.409-0.664-1.021
					c0-0.654,0.052-1.43,0.103-2.309C121.605,51.323,119.766,51.569,118.463,51.854z M123.418,48.585
					c0.154-1.614,0.358-3.289,0.588-4.74c-0.996,1.348-2.299,3.187-3.576,5.046C121.426,48.77,122.448,48.647,123.418,48.585z"/>
				<path fill="none" stroke="#FFFFFF" stroke-width="0.2425" stroke-miterlimit="10" d="M137.668,52.12
					c-0.484,0.776-1.303,1.492-1.967,1.961c-0.715,0.491-1.916,0.776-2.912,0.695c-1.047-0.082-1.89-0.388-2.502-0.674
					c-0.537-0.266-1.176-0.776-1.406-1.389c-1.098-2.82,1.457-8.418,5.033-10.87c0.944-0.633,1.838-0.776,2.579-0.715
					c1.099,0.082,2.401,0.531,3.04,1.001c0.715,0.531,0.843,1.103,0.817,1.818c-0.026,0.817-0.307,1.982-0.639,2.636
					c-0.153,0.327-0.281,0.552-0.945,0.429c-1.328-0.245-1.788-0.776-1.839-1.736c-0.025-0.695,0.383-1.635-0.179-1.818
					c-0.741-0.245-2.81,2.493-3.679,4.372c-0.945,2.023-1.354,4.373-0.459,4.638c0.484,0.143,1.148-0.225,2.196-1.165
					c0.716-0.633,1.66-0.817,2.631-0.552C138.23,50.976,138.103,51.446,137.668,52.12z"/>
				<path fill="none" stroke="#FFFFFF" stroke-width="0.2425" stroke-miterlimit="10" d="M149.47,43.703
					c-1.379,3.187-2.988,7.314-4.112,10.522c-0.153,0.429-0.332,0.511-0.868,0.388s-1.124-0.327-1.584-0.592
					s-0.511-0.572-0.357-1.144c0.536-2.146,1.992-6.15,3.065-8.745c-0.588,0.082-1.227,0.163-1.609,0.245
					c-0.537,0.102-0.767,0.061-1.099-0.327s-0.587-1.083-0.716-1.471c-0.127-0.409,0.026-0.49,0.436-0.572
					c2.4-0.429,6.232-0.756,8.607-0.797c0.588,0,0.792,0.123,0.971,0.327c0.332,0.409,0.562,0.919,0.639,1.349
					s0.025,0.552-0.588,0.592C151.437,43.539,150.492,43.621,149.47,43.703z"/>
			</g>
		</g>
		<g>
			<path fill="#FFFFFF" d="M46.456,48.466c0-0.542,0-1.083,0-1.625c0.035-0.011,0.069-0.016,0.098-0.032
				c0.387-0.258,0.775-0.51,1.16-0.77c0.874-0.592,1.747-1.187,2.619-1.783c0.667-0.451,1.33-0.906,1.996-1.356
				c0.042,0,0.088,0,0.131,0c0.209,0.145,0.415,0.298,0.626,0.44c0.838,0.559,1.678,1.116,2.515,1.678
				c0.809,0.54,1.615,1.08,2.418,1.628c0.114,0.078,0.29,0.177,0.298,0.276c0.029,0.505,0.013,1.018,0.013,1.547
				c-0.262,0-0.495,0-0.755,0c0,1.59,0,3.154,0,4.716c-3.453,0-6.882,0-10.334,0c0-1.577,0-3.142,0-4.719
				C46.964,48.466,46.709,48.466,46.456,48.466z M48.515,51.562c2.603,0,5.174,0,7.758,0c0-1.316,0-2.613-0.003-3.911
				c0-0.042-0.046-0.099-0.083-0.127c-0.395-0.273-0.787-0.545-1.186-0.813c-0.832-0.567-1.666-1.129-2.508-1.686
				c-0.051-0.033-0.164-0.019-0.221,0.018c-0.312,0.198-0.615,0.413-0.925,0.618c-0.892,0.598-1.781,1.195-2.677,1.785
				c-0.114,0.078-0.162,0.155-0.16,0.296c0.008,0.759,0.004,1.518,0.004,2.277C48.515,50.528,48.515,51.039,48.515,51.562z"/>
			<path fill="#FFFFFF" d="M54.415,48.892c-1.356,0-2.696,0-4.047,0c0-0.562,0-1.113,0-1.682c1.342,0,2.687,0,4.047,0
				C54.415,47.762,54.415,48.32,54.415,48.892z"/>
			<path fill="#FFFFFF" d="M50.367,50.815c0-0.553,0-1.09,0-1.639c1.362,0,2.719,0,4.091,0c0,0.537,0,1.081,0,1.639
				C53.104,50.815,51.744,50.815,50.367,50.815z"/>
		</g>
		<g>
			<path fill="#D13239" d="M50.379,75.98h4.124v16.507c0,4.402-1.826,6.602-5.48,6.602h-1.37c-3.652,0-5.481-2.2-5.481-6.602v-1.651
				h4.111v1.651c0,1.1,0.457,1.65,1.37,1.65h1.37c0.914,0,1.372-0.551,1.372-1.65L50.379,75.98z"/>
			<path fill="#D13239" d="M60.911,75.98v23.109h-4.11V75.98H60.911z"/>
			<path fill="#D13239" d="M69.894,95.789l-2.535-7.709v11.01h-4.15V75.98h4.521l3.713,10.812l3.686-10.812h4.522v23.109H75.5
				v-11.01l-2.591,7.709L69.894,95.789L69.894,95.789z"/>
		</g>
		<g>
			<path fill="#002E6D" d="M49.837,170.343c-0.171-0.581-0.283-0.94-0.283-2.788v-3.566c0-2.109-0.626-2.887-2.045-2.887H46.43
				v9.241h-3.122v-22.702h4.712c3.236,0,4.627,1.719,4.627,5.223v1.783c0,2.336-0.652,3.858-2.043,4.604
				c1.561,0.746,2.073,2.465,2.073,4.833v3.503c0,1.103,0.027,1.914,0.339,2.756H49.837L49.837,170.343z M46.43,150.884v6.974h1.221
				c1.165,0,1.873-0.584,1.873-2.399v-2.237c0-1.621-0.481-2.336-1.589-2.336L46.43,150.884L46.43,150.884z"/>
			<path fill="#002E6D" d="M57.841,157.209h4.287v3.243h-4.287v6.647h5.396v3.242H54.72v-22.701h8.517v3.243h-5.396V157.209z"/>
			<path fill="#002E6D" d="M75.273,170.343h-3.152l-0.538-4.116H67.75l-0.539,4.116h-2.867l3.179-22.702h4.57L75.273,170.343z
				 M68.147,163.145h3.01l-1.505-11.48L68.147,163.145z"/>
			<path fill="#002E6D" d="M76.722,147.641h3.123v19.461h5.138v3.241h-8.261V147.641z"/>
			<path fill="#002E6D" d="M93.868,157.209h4.286v3.243h-4.286v6.647h5.394v3.242h-8.517v-22.701h8.517v3.243h-5.394V157.209z"/>
			<path fill="#002E6D" d="M105.395,147.382c3.037,0,4.6,2.075,4.6,5.707v0.713h-2.951v-0.938c0-1.621-0.568-2.238-1.562-2.238
				s-1.562,0.617-1.562,2.238c0,4.67,6.104,5.545,6.104,12.031c0,3.633-1.59,5.709-4.655,5.709s-4.655-2.076-4.655-5.709V163.5
				h2.951v1.621c0,1.622,0.625,2.206,1.619,2.206s1.617-0.584,1.617-2.206c0-4.669-6.103-5.546-6.103-12.032
				C100.796,149.457,102.355,147.382,105.395,147.382z"/>
			<path fill="#002E6D" d="M110.9,147.641h9.652v3.243h-3.266v19.459h-3.121v-19.459H110.9V147.641L110.9,147.641z"/>
			<path fill="#002E6D" d="M130.943,170.343h-3.15l-0.54-4.116h-3.832l-0.539,4.116h-2.866l3.178-22.702h4.572L130.943,170.343z
				 M123.816,163.145h3.011l-1.504-11.48L123.816,163.145z"/>
			<path fill="#002E6D" d="M130.404,147.641h9.652v3.243h-3.266v19.459h-3.122v-19.459h-3.265V147.641L130.404,147.641z"/>
			<path fill="#002E6D" d="M144.542,157.209h4.287v3.243h-4.287v6.647h5.396v3.242h-8.517v-22.701h8.517v3.243h-5.396V157.209z"/>
		</g>
		<g>
			<path fill="#D13239" d="M47.64,140.971h-5.115v-35.746h5.115v15.319h5.815v-15.319h5.209v35.746h-5.209v-15.32H47.64V140.971z"/>
			<path fill="#D13239" d="M67.268,105.225v27.574c0,2.555,1.024,3.473,2.65,3.473c1.63,0,2.653-0.918,2.653-3.473v-27.574h4.836
				v27.216c0,5.72-2.605,8.988-7.627,8.988s-7.628-3.27-7.628-8.988v-27.216H67.268L67.268,105.225z"/>
			<path fill="#D13239" d="M88.57,121.054h7.161v11.336c0,5.717-2.604,8.986-7.625,8.986s-7.628-3.27-7.628-8.986v-18.588
				c0-5.718,2.605-8.986,7.628-8.986s7.625,3.269,7.625,8.986v3.473h-4.836v-3.83c0-2.553-1.021-3.523-2.649-3.523
				s-2.651,0.97-2.651,3.523v19.302c0,2.553,1.023,3.474,2.651,3.474s2.649-0.921,2.649-3.474v-6.587H88.57V121.054z"/>
			<path fill="#D13239" d="M104.152,140.971h-5.116v-35.746h5.116v15.319h5.812v-15.319h5.209v35.746h-5.209v-15.32h-5.812V140.971z
				"/>
			<path fill="#D13239" d="M124.014,120.288h7.022v5.104h-7.022v10.469h8.838v5.107h-13.955v-35.745h13.955v5.107h-8.838V120.288z"
				/>
			<path fill="#D13239" d="M142.896,104.816c4.979,0,7.535,3.269,7.535,8.986v1.123h-4.836v-1.48c0-2.553-0.931-3.523-2.558-3.523
				c-1.63,0-2.562,0.97-2.562,3.523c0,7.354,10,8.732,10,18.946c0,5.717-2.604,8.986-7.627,8.986c-5.022,0-7.627-3.27-7.627-8.986
				v-2.197h4.834v2.554c0,2.553,1.025,3.474,2.654,3.474c1.627,0,2.648-0.921,2.648-3.474c0-7.354-10-8.731-10-18.945
				C135.361,108.084,137.92,104.816,142.896,104.816z"/>
		</g>
		<g>
			<path fill="#002E6D" d="M43.78,198.107c0.087-1.367,0.257-2.756,0.511-4.166c0.251-1.408,0.563-2.84,0.933-4.295
				c0.37-1.453,0.779-2.935,1.232-4.438c0.452-1.506,0.918-3.041,1.398-4.609h-5.302l0.239-3.371h8.267v2.896
				c-0.581,1.557-1.101,3.128-1.563,4.709s-0.854,3.139-1.178,4.669c-0.322,1.531-0.57,3.022-0.744,4.472
				c-0.172,1.45-0.259,2.828-0.259,4.133H43.78z"/>
			<path fill="#002E6D" d="M52.347,194.697h1.966v-11.977c-0.245,0.036-0.483,0.072-0.709,0.108
				c-0.193,0.028-0.395,0.052-0.609,0.075c-0.213,0.022-0.385,0.033-0.519,0.033h-0.259v-2.922l3.483-2.787h1.486v17.467h1.987
				l-0.12,3.412h-6.707L52.347,194.697L52.347,194.697z"/>
			<path fill="#002E6D" d="M60.521,182.503c0.102-0.688,0.273-1.346,0.521-1.97c0.246-0.627,0.558-1.174,0.939-1.646
				c0.377-0.47,0.816-0.846,1.315-1.128c0.499-0.28,1.048-0.421,1.648-0.421c0.565,0,1.102,0.105,1.606,0.32
				c0.505,0.212,0.944,0.533,1.317,0.963c0.373,0.432,0.668,0.967,0.889,1.605c0.22,0.639,0.329,1.379,0.329,2.223
				c0,0.742-0.079,1.482-0.239,2.223c-0.158,0.738-0.377,1.469-0.649,2.194c-0.272,0.725-0.593,1.437-0.958,2.134
				c-0.365,0.697-0.754,1.377-1.163,2.039c-0.41,0.662-0.833,1.297-1.268,1.91c-0.437,0.611-0.859,1.188-1.272,1.732h5.29
				c0,0.346-0.013,0.652-0.04,0.924c-0.026,0.272-0.056,0.537-0.085,0.795c-0.03,0.259-0.056,0.523-0.078,0.795
				c-0.025,0.271-0.035,0.576-0.035,0.912h-8.377v-3.03c0.38-0.671,0.79-1.353,1.229-2.04c0.439-0.689,0.875-1.383,1.308-2.079
				c0.432-0.698,0.853-1.405,1.257-2.12c0.407-0.717,0.763-1.432,1.069-2.148c0.306-0.715,0.552-1.432,0.739-2.146
				c0.186-0.717,0.279-1.432,0.279-2.146c0-0.254-0.029-0.5-0.085-0.734c-0.058-0.234-0.137-0.441-0.24-0.611
				c-0.104-0.172-0.232-0.311-0.389-0.416c-0.156-0.104-0.335-0.154-0.535-0.154c-0.192,0-0.366,0.045-0.523,0.136
				c-0.155,0.091-0.296,0.209-0.419,0.354c-0.124,0.145-0.231,0.311-0.325,0.495c-0.094,0.187-0.173,0.373-0.239,0.564
				c-0.166,0.452-0.287,0.965-0.359,1.534L60.521,182.503z"/>
			<path fill="#002E6D" d="M70.413,188.348h5.75v3.235h-5.75V188.348z"/>
			<path fill="#002E6D" d="M80.187,192.208c0.074,0.499,0.193,0.942,0.358,1.332c0.067,0.164,0.147,0.326,0.24,0.481
				c0.094,0.16,0.202,0.299,0.323,0.422c0.124,0.123,0.263,0.225,0.416,0.302c0.153,0.075,0.325,0.112,0.519,0.112
				c0.341,0,0.629-0.076,0.869-0.235c0.239-0.16,0.436-0.388,0.589-0.688c0.152-0.299,0.266-0.66,0.334-1.088
				c0.07-0.424,0.104-0.904,0.104-1.439c0-0.407-0.035-0.819-0.109-1.235c-0.074-0.418-0.185-0.791-0.334-1.122
				c-0.15-0.331-0.338-0.6-0.564-0.811c-0.227-0.207-0.496-0.312-0.808-0.312c-0.36,0-0.701,0.142-1.023,0.421
				c-0.325,0.282-0.608,0.627-0.854,1.034l-2.136-1.209l0.658-10.942h7.538l-0.241,3.262h-4.802l-0.329,4.867
				c0.18-0.101,0.377-0.19,0.59-0.271c0.179-0.074,0.389-0.139,0.629-0.197c0.238-0.059,0.497-0.088,0.768-0.088h0.022
				c0.571,0,1.1,0.174,1.585,0.523c0.487,0.348,0.905,0.82,1.258,1.42c0.354,0.598,0.629,1.293,0.828,2.086
				c0.2,0.794,0.3,1.629,0.3,2.508c0,1.033-0.113,1.984-0.344,2.854c-0.23,0.871-0.549,1.621-0.958,2.25
				c-0.41,0.632-0.896,1.123-1.459,1.476c-0.561,0.354-1.175,0.529-1.84,0.529c-0.514,0-1.007-0.109-1.483-0.332
				c-0.476-0.224-0.912-0.548-1.309-0.979c-0.395-0.43-0.735-0.959-1.022-1.59c-0.286-0.631-0.492-1.354-0.619-2.167L80.187,192.208
				z"/>
			<path fill="#002E6D" d="M88.562,182.503c0.099-0.688,0.272-1.346,0.52-1.97c0.246-0.627,0.559-1.174,0.938-1.646
				c0.381-0.47,0.818-0.846,1.317-1.128c0.5-0.28,1.049-0.421,1.647-0.421c0.564,0,1.102,0.105,1.608,0.32
				c0.505,0.212,0.942,0.533,1.315,0.963c0.374,0.432,0.669,0.967,0.888,1.605c0.222,0.639,0.331,1.379,0.331,2.223
				c0,0.742-0.081,1.482-0.24,2.223c-0.158,0.738-0.375,1.469-0.646,2.194c-0.274,0.726-0.594,1.437-0.959,2.134
				c-0.367,0.697-0.754,1.377-1.164,2.039c-0.408,0.662-0.832,1.297-1.268,1.91c-0.438,0.611-0.859,1.188-1.273,1.732h5.291
				c0,0.346-0.014,0.652-0.039,0.924c-0.027,0.272-0.055,0.537-0.084,0.795c-0.031,0.259-0.059,0.523-0.08,0.795
				c-0.023,0.271-0.035,0.576-0.035,0.912h-8.375v-3.03c0.378-0.671,0.787-1.353,1.229-2.04c0.438-0.689,0.873-1.383,1.308-2.079
				c0.433-0.698,0.853-1.405,1.256-2.12c0.408-0.717,0.765-1.432,1.07-2.148c0.305-0.717,0.551-1.432,0.737-2.146
				c0.187-0.717,0.279-1.432,0.279-2.146c0-0.254-0.029-0.5-0.086-0.734c-0.055-0.234-0.136-0.441-0.236-0.611
				c-0.104-0.172-0.234-0.311-0.393-0.416c-0.156-0.104-0.334-0.154-0.533-0.154c-0.191,0-0.367,0.045-0.525,0.136
				c-0.153,0.091-0.295,0.209-0.418,0.354c-0.123,0.145-0.229,0.311-0.322,0.495c-0.096,0.187-0.174,0.373-0.241,0.564
				c-0.166,0.452-0.287,0.965-0.358,1.534L88.562,182.503z"/>
			<path fill="#002E6D" d="M99.533,198.107c0.085-1.367,0.255-2.756,0.509-4.166c0.252-1.408,0.562-2.84,0.933-4.295
				c0.369-1.453,0.78-2.935,1.232-4.438c0.452-1.506,0.919-3.041,1.398-4.609h-5.303l0.24-3.371h8.266v2.896
				c-0.578,1.557-1.099,3.128-1.562,4.709s-0.854,3.139-1.177,4.669c-0.325,1.531-0.572,3.022-0.745,4.472
				c-0.175,1.45-0.259,2.828-0.259,4.133H99.533z"/>
			<path fill="#002E6D" d="M107.52,188.348h5.75v3.235h-5.75V188.348z"/>
			<path fill="#002E6D" d="M114.605,181.238c0.265-0.705,0.549-1.311,0.848-1.812c0.3-0.503,0.625-0.916,0.974-1.236
				c0.351-0.322,0.728-0.558,1.134-0.707c0.405-0.15,0.854-0.226,1.348-0.226c0.508,0,1,0.111,1.479,0.332
				c0.479,0.224,0.906,0.55,1.281,0.979c0.377,0.431,0.68,0.968,0.902,1.609c0.229,0.646,0.342,1.387,0.342,2.229
				c0,0.293-0.02,0.641-0.059,1.047c-0.041,0.407-0.143,0.834-0.302,1.278s-0.396,0.884-0.709,1.318
				c-0.312,0.436-0.741,0.824-1.286,1.17c0.405,0.207,0.768,0.459,1.088,0.756c0.316,0.293,0.588,0.646,0.809,1.059
				c0.22,0.412,0.387,0.889,0.498,1.426c0.113,0.542,0.171,1.148,0.171,1.83c0,0.997-0.118,1.877-0.351,2.645
				c-0.232,0.765-0.549,1.407-0.947,1.93c-0.399,0.521-0.865,0.916-1.398,1.182c-0.531,0.27-1.098,0.4-1.697,0.4
				c-0.524,0-1.037-0.092-1.537-0.277c-0.498-0.186-0.959-0.469-1.375-0.85c-0.422-0.381-0.784-0.857-1.09-1.434
				c-0.307-0.576-0.528-1.254-0.668-2.031l2.174-1.291c0.095,0.307,0.199,0.602,0.316,0.881c0.116,0.281,0.262,0.531,0.438,0.748
				c0.178,0.219,0.39,0.39,0.64,0.518c0.249,0.127,0.556,0.189,0.913,0.189c0.26,0,0.493-0.068,0.699-0.209
				c0.207-0.142,0.384-0.33,0.533-0.565s0.266-0.507,0.346-0.815c0.08-0.307,0.121-0.629,0.121-0.963
				c0-0.717-0.09-1.295-0.262-1.734c-0.175-0.438-0.406-0.776-0.699-1.014c-0.291-0.232-0.635-0.393-1.026-0.468
				c-0.394-0.077-0.813-0.116-1.259-0.116v-3.125c0.414,0,0.803-0.041,1.168-0.117s0.688-0.225,0.963-0.44
				c0.277-0.22,0.494-0.519,0.654-0.896c0.16-0.381,0.24-0.879,0.24-1.496c0-0.301-0.031-0.586-0.092-0.863
				c-0.06-0.275-0.148-0.52-0.269-0.727c-0.12-0.209-0.271-0.377-0.451-0.502c-0.179-0.129-0.39-0.191-0.629-0.191
				c-0.331,0-0.617,0.113-0.853,0.34c-0.235,0.225-0.436,0.477-0.594,0.748c-0.188,0.316-0.344,0.678-0.471,1.087L114.605,181.238z"
				/>
			<path fill="#002E6D" d="M125.027,194.697h1.966v-11.977c-0.247,0.036-0.482,0.072-0.709,0.108
				c-0.191,0.028-0.396,0.052-0.607,0.075c-0.215,0.022-0.387,0.033-0.521,0.033h-0.258v-2.922l3.481-2.787h1.487v17.467h1.986
				l-0.121,3.412h-6.705V194.697L125.027,194.697z"/>
			<path fill="#002E6D" d="M133.214,194.697h1.966v-11.977c-0.246,0.036-0.482,0.072-0.709,0.108
				c-0.193,0.028-0.396,0.052-0.609,0.075c-0.213,0.022-0.385,0.033-0.519,0.033h-0.259v-2.922l3.482-2.787h1.488v17.467h1.986
				l-0.121,3.412h-6.707L133.214,194.697L133.214,194.697z"/>
			<path fill="#002E6D" d="M145.801,192.891h-5.22v-3.127l5.09-12.533h3.005v12.533h1.916l-0.24,3.127h-1.676v5.055l-2.875,0.326
				V192.891z M145.801,189.764v-7.328l-2.845,7.328H145.801z"/>
		</g>
	</g>
</g>
</svg>
